PathFileType	4	(X/Y/Z)	Patient4_TMGait_0pt2_02_right_12.trc.trc
DataRate	CameraRate	NumFrames	NumMarkers	Units	OrigDataRate	OrigDataStartFrame	OrigNumFrames
49.469964664311	49.469964664311	7	33	mm	49.469964664311	36	       141
Frame#	Time	R.Midfoot.Superior			Sacral			L.Shoulder			Chest			R.Shoulder			Neck			R.ASIS			L.ASIS			R.Thigh.Superior			R.Thigh.Lateral			R.Thigh.Inferior			R.Patella			L.Thigh.Superior			L.Thigh.Lateral			L.Thigh.Inferior			L.Patella			L.Shank.Superior			L.Shank.Lateral			L.Shank.Inferior			R.Shank.Superior			R.Shank.Lateral			R.Shank.Inferior			R.Heel			R.Midfoot.Lateral			R.Toe			L.Heel			L.Midfoot.Lateral			L.Midfoot.Superior			L.Toe			L.Elbow			L.Wrist			R.Elbow			R.Wrist			
		X1	Y1	Z1	X2	Y2	Z2	X3	Y3	Z3	X4	Y4	Z4	X5	Y5	Z5	X6	Y6	Z6	X7	Y7	Z7	X8	Y8	Z8	X9	Y9	Z9	X10	Y10	Z10	X11	Y11	Z11	X12	Y12	Z12	X13	Y13	Z13	X14	Y14	Z14	X15	Y15	Z15	X16	Y16	Z16	X17	Y17	Z17	X18	Y18	Z18	X19	Y19	Z19	X20	Y20	Z20	X21	Y21	Z21	X22	Y22	Z22	X23	Y23	Z23	X24	Y24	Z24	X25	Y25	Z25	X26	Y26	Z26	X27	Y27	Z27	X28	Y28	Z28	X29	Y29	Z29	X30	Y30	Z30	X31	Y31	Z31	X32	Y32	Z32	X33	Y33	Z33	

36	27.397500000000	814.189886382005	97.278718469485	539.552257240009	551.704571731391	1007.437816404389	393.072182343974	800.963056896732	1429.697829898553	258.613099318552	845.420557537369	1360.137525494882	442.665035910305	724.938533622900	1451.684635906982	580.496962934479	732.892484477979	1491.394959177653	402.916169777747	752.676462224637	943.213056970264	555.847171878688	790.687911539174	954.174633735309	285.084846071379	812.876959764088	745.845521059827	522.959533165771	738.763582164082	630.970361052856	581.535880736772	823.677204502195	583.882823657620	504.852784676516	831.013667181785	496.151636435944	514.225831527099	798.593711698948	727.591069309069	302.961330881387	701.498566231628	625.658742601081	222.535244505513	769.046861740663	535.602239295266	287.120866096559	758.725534755693	464.809979191730	287.036865939645	713.409326895968	400.827794972151	272.273400965956	599.941135817361	310.822774896522	218.316419096816	631.958269199234	185.513117184121	273.995863074701	803.008681599862	405.672139335844	523.695364742512	732.594767050787	304.307059307624	591.700006203015	774.472166443142	207.059136339220	530.974680696413	640.990040082423	40.951486933061	512.852924492057	728.846318860421	36.173299243151	582.791365057986	935.045548250671	48.706391550599	559.527758118471	485.514897247486	41.486482124111	315.331409553054	550.448181324284	37.012766016448	227.564126177122	638.788474107116	95.547385270309	246.761172520187	760.620588639918	39.302959093458	201.228693760375	964.608628780067	1165.983807211893	101.025551890481	1220.427299161849	1200.675583157593	122.365841973094	531.452871969011	1161.540709423130	661.947161188409	487.973702002257	901.209600797756	659.163362136901	
37	27.417714285714	810.445407243486	97.113854279944	539.629080191958	552.439229541440	1007.707865941271	399.859794546100	800.505273610261	1429.501091202719	262.458617601592	846.705576440810	1360.124648008020	446.153079255132	727.524212723122	1451.802065081975	585.026985614982	734.648643850080	1491.552835274968	407.167629044304	754.891591800516	943.618955763253	560.831950044337	790.396948388134	953.980026477575	289.643523937918	813.630865708851	745.577904621323	527.147493365979	738.843498924931	630.804253652047	585.360120793819	823.115369245291	583.480041899040	508.191187003899	830.044366159785	495.517262863041	516.936598288162	797.428488474294	727.344408785393	306.519646128203	698.953079002172	626.479448409225	225.950102574542	766.658714923674	535.606216860895	289.296957844200	756.177380906733	464.701113993484	288.689569003876	710.528493693429	401.368170175722	273.882161230898	596.402771016537	312.118437817652	220.070358071924	628.440891762749	186.153534107377	274.449039856202	801.367162155656	405.230288752910	525.787013545767	730.475086048685	303.858237775017	593.271444806697	771.482709066973	206.754283294679	531.721166547792	637.177282707147	40.987329085678	512.841839507240	724.994516426730	36.161292938934	582.764341866468	931.263840264552	48.294101520036	559.638698371696	481.626374304553	42.387588962741	315.370526175061	546.612335997733	37.589300832687	227.652398877203	635.191094602854	95.715428774033	246.737782496747	756.814502664117	38.968986112861	201.159456505049	960.733005451014	1162.502414112825	105.215162785667	1217.404089707125	1192.061650853099	125.888810192647	535.784166445924	1161.262008706216	669.948706268063	493.695671080456	900.754408339906	668.490875622234	
38	27.437928571429	806.658472963831	96.954762158838	539.692427423549	553.044285123571	1007.999766907198	406.679426740847	799.992846754595	1429.203762241938	266.147391600524	848.022594596811	1360.007643247994	449.446913814266	730.210916601223	1451.817235488888	589.394624192819	736.516204099226	1491.669975978122	411.236956283159	756.996581417702	943.942990550458	565.760210742296	789.902529142522	953.763993702836	294.153730796781	814.260617931171	745.295981841705	531.281922029584	738.767508649877	630.617631489451	589.113878342040	822.364684739016	583.067775918348	511.477821837634	828.865818219774	494.891815496737	519.619487700605	796.459587392330	727.213668305881	310.050022179603	696.848299056669	627.255695157218	229.373983289737	764.940131252517	535.665612569033	291.451526462730	754.425318053393	464.512822144980	290.225907220812	708.284447086546	401.858295120817	275.430847409670	593.333029807921	313.546585015965	221.784390975456	625.228468792017	186.880684005592	274.837618125253	799.568156769274	404.816121679581	527.850077029203	728.223417698244	303.420525936104	594.777098316700	768.438055066197	206.495096646450	532.448381249876	633.315016720212	41.072485484227	512.803865756702	721.083105634348	36.173851204680	582.708645371972	927.430332270632	47.830570537507	559.753879778216	477.784038571253	43.602010786045	315.330716278945	542.822369277045	38.304815396595	227.676562262131	631.732626526894	95.929036074458	246.634312134867	753.077290625291	38.616156086009	201.075687278137	956.063877173113	1158.282486945617	109.503123446643	1213.606970452014	1181.939694176454	129.370249634827	540.370314358585	1160.849949957227	677.984840084711	499.971669216236	900.134289402620	677.924762091552	
39	27.458142857143	802.829822857351	96.802824682037	539.737163465988	553.523506303247	1008.299329553832	413.528679018829	799.365177255613	1428.813235607504	269.666268398974	849.313068228772	1359.809614433751	452.537444572716	732.915906484380	1451.741180366043	593.580874768610	738.425894535486	1491.749280898613	415.104887694491	759.010443061060	944.189477196696	570.617885192943	789.208674815881	953.549563365630	298.612144458969	814.825955579364	745.012503542480	535.315663137574	738.640621554652	630.409987040863	592.781612137112	821.510324710274	582.654125777896	514.665477644279	827.579064660479	494.270903562489	522.228691853866	795.799493460147	727.230771623459	313.588871569240	695.378376703305	627.965198284410	232.803725853010	764.105192961955	535.788755297007	293.603690942541	753.686544357599	464.233878995562	291.646769678536	706.865782109646	402.277114786359	276.913641582112	590.892993759030	315.147535310459	223.445267984317	622.411081309563	187.726886277161	275.143238234609	797.694072456300	404.419322288042	529.849167465068	725.927599903084	302.994804156748	596.208544294794	765.379679703362	206.267586202747	533.135265824403	629.401346728607	41.203679973225	512.751696715179	717.116318887761	36.210580420252	582.632940077865	923.551500522697	47.315682530168	559.865610438513	474.027172752951	45.260550562834	315.199348013944	539.096575597318	39.239005652768	227.626488014016	628.456852021467	96.213543752052	246.427523686110	749.396645010901	38.245462767801	200.971716028771	950.503641873059	1153.311008424550	113.952393209107	1208.891434940231	1170.092187361141	132.873989016157	545.240644455861	1160.236786673650	686.055792349263	506.995904472098	899.264444931393	687.542734278773	
40	27.478357142857	798.966998572081	96.658525590926	539.759337263437	553.879670303819	1008.582406071305	420.402360368513	798.558314021266	1428.327877026903	273.002535235191	850.517853069006	1359.543886706549	455.414589462869	735.565347368249	1451.579158355075	597.570425487927	740.307164206562	1491.784461645573	418.754442200568	760.951261199880	944.357140911811	575.390286338525	788.318588385867	953.350060080702	303.012104295130	815.382374845996	744.731794462370	539.207400796485	738.562380047926	630.171086257389	596.348154865292	820.641160485293	582.241074350244	517.710839792275	826.289046345927	493.642816040250	524.718762569529	795.563580602718	727.431701639712	317.158189204627	694.733001960048	628.586243836615	236.234776872190	764.367172268157	535.990694000976	295.769124263678	754.174343426661	463.866298909475	292.961013184128	706.467363525264	402.610322422804	278.329281974986	589.258700260204	316.969900987374	225.046303432755	620.089458602909	188.738147946944	275.354086935134	795.828737332949	404.022747371109	531.749261683235	723.674553414340	302.574568502605	597.556857467449	762.349200355757	206.053888755838	533.761645287340	625.444151251548	41.374678376481	512.695033185285	713.106760926015	36.268918132624	582.545268392007	919.640203496564	46.752976298802	559.968948264064	470.412970577487	47.527140327570	314.976410745965	535.461182908092	40.507783340792	227.500346511713	625.416113779204	96.606727498022	246.101781037534	745.747433337298	37.853789512956	200.841499377389	943.977114993436	1147.611320268812	118.611674371015	1203.096456869926	1156.318364315951	136.464706780998	550.442591273365	1159.345409808468	694.153542036650	514.983497318192	898.060174809777	697.400141243086	
41	27.498571428571	795.080439791473	96.521539403253	539.756483580398	554.112038537003	1008.813030827093	427.291704536381	797.511809180201	1427.732965334322	276.146604204795	851.581902165941	1359.208080333894	458.069298488856	738.100785588421	1451.325363300082	601.351674108624	742.091906291040	1491.756347928154	422.174422414580	762.831799340925	944.435425629401	580.061553733655	787.233487218692	953.164619969255	307.343115582483	815.979420107060	744.449034809045	542.921017218658	738.625361236746	629.880294410312	599.796428891945	819.849563741134	581.823578615108	520.574722320138	825.104291845723	492.987355014984	527.046942376652	795.857737355166	727.853415591403	320.763763183819	695.085561383392	629.098826594864	239.662798726230	765.924313516206	536.294179189417	297.963980676639	756.086404112880	463.427923133981	294.190574634892	707.280071888189	402.852915325644	279.686067452053	588.612919519898	319.069896150552	226.591215657232	618.371827177962	189.975156902856	275.471767913283	794.056366608343	403.601431163792	533.517812456006	721.546229828332	302.146495925700	598.813595183709	759.385153156085	205.832386379968	534.310068800049	621.456134607044	41.577264234404	512.640492702726	709.070437484068	36.344542989520	582.452680889404	915.711026855621	46.149293670649	560.061379686906	467.017037646980	50.594856351168	314.679033099388	531.951768975072	42.264693034650	227.308377700762	622.669659444141	97.161796798947	245.655056606241	742.091638675096	37.433826813844	200.680071248301	936.437295282014	1141.237982111697	123.511032608455	1196.038811703948	1140.452390280112	140.203048341369	556.040277743006	1158.092252389708	702.260541414403	524.164267819512	896.443216964844	707.521224924598	
42	27.518785714286	791.180518425300	96.391001058103	539.728071026920	554.215286810499	1008.943720741420	434.183807731312	796.175215486659	1426.999870401768	279.094210176825	852.458604143713	1358.781323599721	460.495293904250	740.483121660873	1450.960561692331	604.918636826596	743.717537835894	1491.631756463055	425.362731581951	764.656994029913	944.402371431169	584.613537117522	785.952486128850	952.976154597896	311.590133144518	816.659843876182	744.150380777148	546.425250254349	738.913577423560	629.507248151013	603.105649484334	819.229856971650	581.389499378575	523.221914961802	824.135726639050	492.276110098214	529.174764908078	796.765252958716	728.530258615987	324.399058534096	696.582400222939	629.487067524017	243.085352249011	768.943134568812	536.730744279735	300.211978889283	759.590758263945	462.954164606227	295.376344190308	709.477044240443	403.011990791111	281.007169595248	589.132994226563	321.509713564826	228.098060837098	617.368580764485	191.512518426165	275.518139449914	792.460231829719	403.122997995689	535.126279885171	719.616184073085	301.692170503269	599.971174065346	756.520720816644	205.578506914828	534.767287870135	617.450746515421	41.801915436820	512.592263942642	705.022934222542	36.431760072398	582.361118417419	911.776806479001	45.514554943892	560.142346863620	463.932286061001	54.675463934113	314.345687694323	528.614776859953	44.696370080077	227.076865859124	620.281354269253	97.949090127825	245.105020560931	738.381735983603	36.974775998219	200.485493461411	927.868566273876	1134.269705900186	128.659806988653	1187.508742425450	1122.381586347134	144.140737334575	562.111371990452	1156.392456983198	710.350146399089	534.776379699372	894.350684290988	717.893683005643	
